HIERARCHY
ROOT ui
{
	 OFFSET 0 0 0
	 CHANNELS 3 XPosition YPosition Z Position
	 EndSite
	 {
	 OFFSET 0 -1 0
	 }
}
ROOT li
{
	 OFFSET 0 0 0
	 CHANNELS 3 XPosition YPosition Z Position
	 EndSite
	 {
	 OFFSET 0 -1 0
	 }
}
ROOT ul
{
	 OFFSET 0 0 0
	 CHANNELS 3 XPosition YPosition Z Position
	 EndSite
	 {
	 OFFSET 0 -1 0
	 }
}
ROOT ll
{
	 OFFSET 0 0 0
	 CHANNELS 3 XPosition YPosition Z Position
	 EndSite
	 {
	 OFFSET 0 -1 0
	 }
}
ROOT tt
{
	 OFFSET 0 0 0
	 CHANNELS 3 XPosition YPosition Z Position
	 EndSite
	 {
	 OFFSET 0 -1 0
	 }
}
ROOT tb
{
	 OFFSET 0 0 0
	 CHANNELS 3 XPosition YPosition Z Position
	 EndSite
	 {
	 OFFSET 0 -1 0
	 }
}
ROOT td
{
	 OFFSET 0 0 0
	 CHANNELS 3 XPosition YPosition Z Position
	 EndSite
	 {
	 OFFSET 0 -1 0
	 }
}
ROOT v
{
	 OFFSET 0 0 0
	 CHANNELS 3 XPosition YPosition Z Position
	 EndSite
	 {
	 OFFSET 0 -1 0
	 }
}
ROOT bn
{
	 OFFSET 0 0 0
	 CHANNELS 3 XPosition YPosition Z Position
	 EndSite
	 {
	 OFFSET 0 -1 0
	 }
}
MOTION
Frames: 10
Frame Time: 0.002
0.001445762038230896	-5.284510254859924E-4	0		0.49395223999023435	-2.40296875	0		-0.9594323120117187	0.16607685852050783	0		-0.70851708984375	-2.612712646484375	0		1.4568121337890625	-0.8255465087890625	0		3.23279931640625	-0.10573081970214844	0		4.574798828125	0.03143023681640625	0		5.56722802734375	0.09423601531982422	0		-0.15680267333984374	5.93169873046875	0		
0.0015684200525283814	-6.103150248527527E-4	0		0.44906622314453126	-2.403741943359375	0		-0.9542821044921875	0.16996168518066407	0		-0.7083975830078125	-2.61279345703125	0		1.4628924560546874	-0.8316712036132813	0		3.2208740234375	-0.11273392486572266	0		4.5799697265625	0.038308639526367184	0		5.56735107421875	0.0941475067138672	0		-0.15667979431152343	5.9306171875	0		
0.001692981004714966	-6.931530237197876E-4	0		0.5071728515625	-2.406223876953125	0		-0.9491918334960937	0.16484573364257812	0		-0.6933038940429688	-2.616978515625	0		1.4660364990234376	-0.8287764282226563	0		3.227094482421875	-0.09886211395263672	0		4.58503271484375	0.029186492919921876	0		5.5715234375	0.10103045654296874	0		-0.1565482635498047	5.93053466796875	0		
0.008859329223632813	0.005176521778106689	0		0.45334478759765623	-2.398935546875	0		-0.9500044555664062	0.17377140808105468	0		-0.7021126708984375	-2.606998291015625	0		1.466160888671875	-0.8288601684570313	0		3.21007568359375	-0.11983049774169922	0		4.58022021484375	0.03813360595703125	0		5.57164892578125	0.10094207000732422	0		-0.1564093780517578	5.93145263671875	0		
0.0019421759843826294	-8.54973018169403E-4	0		0.507416748046875	-2.40638671875	0		-0.9539077758789063	0.1697202606201172	0		-0.7060189208984375	-2.611049560546875	0		1.4573048095703125	-0.8258796997070312	0		3.2543291015625	-0.10121661376953126	0		4.58034423828125	0.038049179077148436	0		5.56772509765625	0.09388404083251953	0		-0.15628599548339844	5.930373046875	0		
0.002061574935913086	-9.312300086021423E-4	0		0.47060345458984376	-2.39620947265625	0		-0.9537882080078125	0.16964492797851563	0		-0.633951904296875	-2.6186201171875	0		1.45742333984375	-0.8259573364257813	0		3.216414794921875	-0.10603462219238281	0		4.5804638671875	0.03796868896484375	0		5.5678447265625	0.0938023910522461	0		-0.15615399169921876	5.931296875	0		
0.002172347068786621	-0.0010029690265655517	0		0.5056220092773438	-2.40952197265625	0		-0.95367724609375	0.16957398986816405	0		-0.7078071899414062	-2.6131826171875	0		1.4634920654296875	-0.8320714111328125	0		3.229484130859375	-0.11219830322265625	0		4.58057470703125	0.03789328002929687	0		5.57200341796875	0.10069833374023437	0		-0.15603825378417968	5.93122509765625	0		
-0.04468025207519531	0.006253917217254639	0		0.4537885437011719	-2.39923095703125	0		-0.93861376953125	0.16440541076660156	0		-0.6907249145507812	-2.615364990234375	0		1.4696375732421876	-0.8251799926757812	0		3.2245546875	-0.11623214721679688	0		4.590666015625	0.03675543212890625	0		5.57703955078125	0.09159426116943359	0		-0.15395681762695312	5.9281455078125	0		
0.009395419120788574	0.004822699069976807	0		0.5118492126464844	-2.40268994140625	0		-0.9394747924804687	0.17235267639160157	0		-0.7015870361328125	-2.60734912109375	0		1.4697210693359375	-0.8252406005859375	0		3.236830810546875	-0.08837674713134766	0		4.58581201171875	0.0457276611328125	0		5.576240234375	0.10853821563720703	0		-0.13978109741210937	5.9409892578125	0		
0.0024255149364471435	-0.001182628035545349	0		0.498947509765625	-2.398654296875	0		-0.9534238891601563	0.1693957061767578	0		-0.7055440673828125	-2.611375	0		1.457785400390625	-0.8262120361328125	0		3.204730712890625	-0.11321063995361329	0		4.580828125	0.037707321166992186	0		5.56820849609375	0.09353831481933594	0		-0.17085871887207033	5.9191494140625	0		
